<mxfile host="Electron" agent="Mozilla/5.0 (Windows NT 10.0; Win64; x64) AppleWebKit/537.36 (KHTML, like Gecko) draw.io/26.0.16 Chrome/132.0.6834.196 Electron/34.2.0 Safari/537.36" version="26.0.16">
  <diagram name="Страница — 1" id="CTyn7DMsM46NE1XMFwZS">
    <mxGraphModel dx="814" dy="559" grid="0" gridSize="10" guides="1" tooltips="1" connect="1" arrows="1" fold="1" page="1" pageScale="1" pageWidth="827" pageHeight="1169" math="0" shadow="0">
      <root>
        <mxCell id="0" />
        <mxCell id="1" parent="0" />
        <mxCell id="OIBPaiVVMI2ZqsM4aZRZ-1" value="&lt;font style=&quot;font-size: 17px;&quot;&gt;1&lt;/font&gt;" style="ellipse;whiteSpace=wrap;html=1;aspect=fixed;" parent="1" vertex="1">
          <mxGeometry x="400" y="320" width="50" height="50" as="geometry" />
        </mxCell>
        <mxCell id="OIBPaiVVMI2ZqsM4aZRZ-2" value="&lt;font style=&quot;font-size: 17px;&quot;&gt;2&lt;/font&gt;" style="ellipse;whiteSpace=wrap;html=1;aspect=fixed;" parent="1" vertex="1">
          <mxGeometry x="350" y="190" width="50" height="50" as="geometry" />
        </mxCell>
        <mxCell id="OIBPaiVVMI2ZqsM4aZRZ-3" value="&lt;font style=&quot;font-size: 17px;&quot;&gt;3&lt;/font&gt;" style="ellipse;whiteSpace=wrap;html=1;aspect=fixed;" parent="1" vertex="1">
          <mxGeometry x="480" y="120" width="50" height="50" as="geometry" />
        </mxCell>
        <mxCell id="OIBPaiVVMI2ZqsM4aZRZ-4" value="&lt;font style=&quot;font-size: 17px;&quot;&gt;4&lt;/font&gt;" style="ellipse;whiteSpace=wrap;html=1;aspect=fixed;" parent="1" vertex="1">
          <mxGeometry x="540" y="260" width="50" height="50" as="geometry" />
        </mxCell>
        <mxCell id="OIBPaiVVMI2ZqsM4aZRZ-5" value="&lt;font style=&quot;font-size: 17px;&quot;&gt;5&lt;/font&gt;" style="ellipse;whiteSpace=wrap;html=1;aspect=fixed;" parent="1" vertex="1">
          <mxGeometry x="230" y="280" width="50" height="50" as="geometry" />
        </mxCell>
        <mxCell id="OIBPaiVVMI2ZqsM4aZRZ-6" value="&lt;font style=&quot;font-size: 17px;&quot;&gt;6&lt;/font&gt;" style="ellipse;whiteSpace=wrap;html=1;aspect=fixed;" parent="1" vertex="1">
          <mxGeometry x="389" y="40" width="50" height="50" as="geometry" />
        </mxCell>
        <mxCell id="OIBPaiVVMI2ZqsM4aZRZ-7" value="&lt;font style=&quot;font-size: 17px;&quot;&gt;7&lt;/font&gt;" style="ellipse;whiteSpace=wrap;html=1;aspect=fixed;" parent="1" vertex="1">
          <mxGeometry x="280" y="60" width="50" height="50" as="geometry" />
        </mxCell>
        <mxCell id="OIBPaiVVMI2ZqsM4aZRZ-8" value="&lt;span style=&quot;font-size: 17px;&quot;&gt;8&lt;/span&gt;" style="ellipse;whiteSpace=wrap;html=1;aspect=fixed;" parent="1" vertex="1">
          <mxGeometry x="560" y="130" width="50" height="50" as="geometry" />
        </mxCell>
        <mxCell id="OIBPaiVVMI2ZqsM4aZRZ-9" value="&lt;font style=&quot;font-size: 17px;&quot;&gt;9&lt;/font&gt;" style="ellipse;whiteSpace=wrap;html=1;aspect=fixed;" parent="1" vertex="1">
          <mxGeometry x="230" y="170" width="50" height="50" as="geometry" />
        </mxCell>
        <mxCell id="OIBPaiVVMI2ZqsM4aZRZ-12" value="" style="endArrow=classic;html=1;rounded=0;exitX=0.5;exitY=1;exitDx=0;exitDy=0;entryX=0.5;entryY=0;entryDx=0;entryDy=0;" parent="1" source="OIBPaiVVMI2ZqsM4aZRZ-6" target="OIBPaiVVMI2ZqsM4aZRZ-1" edge="1">
          <mxGeometry width="50" height="50" relative="1" as="geometry">
            <mxPoint x="390" y="370" as="sourcePoint" />
            <mxPoint x="440" y="320" as="targetPoint" />
          </mxGeometry>
        </mxCell>
        <mxCell id="OIBPaiVVMI2ZqsM4aZRZ-14" value="" style="endArrow=classic;html=1;rounded=0;exitX=0;exitY=1;exitDx=0;exitDy=0;entryX=0.5;entryY=0;entryDx=0;entryDy=0;" parent="1" source="OIBPaiVVMI2ZqsM4aZRZ-6" target="OIBPaiVVMI2ZqsM4aZRZ-2" edge="1">
          <mxGeometry width="50" height="50" relative="1" as="geometry">
            <mxPoint x="420" y="250" as="sourcePoint" />
            <mxPoint x="470" y="200" as="targetPoint" />
          </mxGeometry>
        </mxCell>
        <mxCell id="OIBPaiVVMI2ZqsM4aZRZ-15" value="" style="endArrow=classic;html=1;rounded=0;exitX=1;exitY=1;exitDx=0;exitDy=0;entryX=0;entryY=0;entryDx=0;entryDy=0;" parent="1" source="OIBPaiVVMI2ZqsM4aZRZ-6" target="OIBPaiVVMI2ZqsM4aZRZ-3" edge="1">
          <mxGeometry width="50" height="50" relative="1" as="geometry">
            <mxPoint x="420" y="250" as="sourcePoint" />
            <mxPoint x="470" y="200" as="targetPoint" />
          </mxGeometry>
        </mxCell>
        <mxCell id="OIBPaiVVMI2ZqsM4aZRZ-17" value="" style="endArrow=classic;html=1;rounded=0;exitX=1;exitY=0.5;exitDx=0;exitDy=0;entryX=0;entryY=0;entryDx=0;entryDy=0;" parent="1" source="OIBPaiVVMI2ZqsM4aZRZ-6" target="OIBPaiVVMI2ZqsM4aZRZ-8" edge="1">
          <mxGeometry width="50" height="50" relative="1" as="geometry">
            <mxPoint x="420" y="250" as="sourcePoint" />
            <mxPoint x="470" y="200" as="targetPoint" />
          </mxGeometry>
        </mxCell>
        <mxCell id="OIBPaiVVMI2ZqsM4aZRZ-18" value="" style="endArrow=classic;html=1;rounded=0;exitX=0;exitY=0.5;exitDx=0;exitDy=0;" parent="1" source="OIBPaiVVMI2ZqsM4aZRZ-6" target="OIBPaiVVMI2ZqsM4aZRZ-9" edge="1">
          <mxGeometry width="50" height="50" relative="1" as="geometry">
            <mxPoint x="420" y="250" as="sourcePoint" />
            <mxPoint x="470" y="200" as="targetPoint" />
          </mxGeometry>
        </mxCell>
        <mxCell id="OIBPaiVVMI2ZqsM4aZRZ-19" value="" style="endArrow=classic;html=1;rounded=0;exitX=1;exitY=0;exitDx=0;exitDy=0;entryX=0.288;entryY=0.964;entryDx=0;entryDy=0;entryPerimeter=0;" parent="1" source="OIBPaiVVMI2ZqsM4aZRZ-1" target="OIBPaiVVMI2ZqsM4aZRZ-3" edge="1">
          <mxGeometry width="50" height="50" relative="1" as="geometry">
            <mxPoint x="430" y="240" as="sourcePoint" />
            <mxPoint x="470" y="200" as="targetPoint" />
          </mxGeometry>
        </mxCell>
        <mxCell id="OIBPaiVVMI2ZqsM4aZRZ-20" value="" style="endArrow=classic;html=1;rounded=0;exitX=1;exitY=0.5;exitDx=0;exitDy=0;entryX=0;entryY=0.5;entryDx=0;entryDy=0;" parent="1" source="OIBPaiVVMI2ZqsM4aZRZ-1" target="OIBPaiVVMI2ZqsM4aZRZ-4" edge="1">
          <mxGeometry width="50" height="50" relative="1" as="geometry">
            <mxPoint x="420" y="250" as="sourcePoint" />
            <mxPoint x="470" y="200" as="targetPoint" />
          </mxGeometry>
        </mxCell>
        <mxCell id="OIBPaiVVMI2ZqsM4aZRZ-21" value="" style="endArrow=classic;html=1;rounded=0;exitX=0;exitY=0.5;exitDx=0;exitDy=0;entryX=1;entryY=0.5;entryDx=0;entryDy=0;" parent="1" source="OIBPaiVVMI2ZqsM4aZRZ-1" target="OIBPaiVVMI2ZqsM4aZRZ-5" edge="1">
          <mxGeometry width="50" height="50" relative="1" as="geometry">
            <mxPoint x="420" y="250" as="sourcePoint" />
            <mxPoint x="470" y="200" as="targetPoint" />
          </mxGeometry>
        </mxCell>
        <mxCell id="OIBPaiVVMI2ZqsM4aZRZ-22" value="" style="endArrow=classic;html=1;rounded=0;entryX=0;entryY=1;entryDx=0;entryDy=0;" parent="1" source="OIBPaiVVMI2ZqsM4aZRZ-1" target="OIBPaiVVMI2ZqsM4aZRZ-8" edge="1">
          <mxGeometry width="50" height="50" relative="1" as="geometry">
            <mxPoint x="440" y="240" as="sourcePoint" />
            <mxPoint x="470" y="200" as="targetPoint" />
          </mxGeometry>
        </mxCell>
        <mxCell id="OIBPaiVVMI2ZqsM4aZRZ-23" value="" style="endArrow=classic;html=1;rounded=0;entryX=1;entryY=1;entryDx=0;entryDy=0;exitX=0;exitY=0;exitDx=0;exitDy=0;" parent="1" source="OIBPaiVVMI2ZqsM4aZRZ-1" target="OIBPaiVVMI2ZqsM4aZRZ-9" edge="1">
          <mxGeometry width="50" height="50" relative="1" as="geometry">
            <mxPoint x="420" y="250" as="sourcePoint" />
            <mxPoint x="470" y="200" as="targetPoint" />
          </mxGeometry>
        </mxCell>
        <mxCell id="OIBPaiVVMI2ZqsM4aZRZ-24" value="" style="endArrow=classic;html=1;rounded=0;exitX=1;exitY=1;exitDx=0;exitDy=0;" parent="1" source="OIBPaiVVMI2ZqsM4aZRZ-2" target="OIBPaiVVMI2ZqsM4aZRZ-1" edge="1">
          <mxGeometry width="50" height="50" relative="1" as="geometry">
            <mxPoint x="420" y="250" as="sourcePoint" />
            <mxPoint x="470" y="200" as="targetPoint" />
          </mxGeometry>
        </mxCell>
        <mxCell id="OIBPaiVVMI2ZqsM4aZRZ-25" value="" style="endArrow=classic;html=1;rounded=0;exitX=1;exitY=0.5;exitDx=0;exitDy=0;entryX=0.015;entryY=0.686;entryDx=0;entryDy=0;entryPerimeter=0;" parent="1" source="OIBPaiVVMI2ZqsM4aZRZ-2" target="OIBPaiVVMI2ZqsM4aZRZ-3" edge="1">
          <mxGeometry width="50" height="50" relative="1" as="geometry">
            <mxPoint x="420" y="250" as="sourcePoint" />
            <mxPoint x="450" y="200" as="targetPoint" />
          </mxGeometry>
        </mxCell>
        <mxCell id="OIBPaiVVMI2ZqsM4aZRZ-26" value="" style="endArrow=classic;html=1;rounded=0;exitX=0.966;exitY=0.69;exitDx=0;exitDy=0;exitPerimeter=0;" parent="1" source="OIBPaiVVMI2ZqsM4aZRZ-2" target="OIBPaiVVMI2ZqsM4aZRZ-4" edge="1">
          <mxGeometry width="50" height="50" relative="1" as="geometry">
            <mxPoint x="420" y="250" as="sourcePoint" />
            <mxPoint x="470" y="200" as="targetPoint" />
          </mxGeometry>
        </mxCell>
        <mxCell id="OIBPaiVVMI2ZqsM4aZRZ-27" value="" style="endArrow=classic;html=1;rounded=0;exitX=0;exitY=1;exitDx=0;exitDy=0;entryX=1;entryY=0;entryDx=0;entryDy=0;" parent="1" source="OIBPaiVVMI2ZqsM4aZRZ-2" target="OIBPaiVVMI2ZqsM4aZRZ-5" edge="1">
          <mxGeometry width="50" height="50" relative="1" as="geometry">
            <mxPoint x="420" y="250" as="sourcePoint" />
            <mxPoint x="470" y="200" as="targetPoint" />
          </mxGeometry>
        </mxCell>
        <mxCell id="OIBPaiVVMI2ZqsM4aZRZ-28" value="" style="endArrow=classic;html=1;rounded=0;exitX=0.974;exitY=0.642;exitDx=0;exitDy=0;exitPerimeter=0;entryX=0.013;entryY=0.668;entryDx=0;entryDy=0;entryPerimeter=0;" parent="1" source="OIBPaiVVMI2ZqsM4aZRZ-2" target="OIBPaiVVMI2ZqsM4aZRZ-8" edge="1">
          <mxGeometry width="50" height="50" relative="1" as="geometry">
            <mxPoint x="420" y="250" as="sourcePoint" />
            <mxPoint x="470" y="200" as="targetPoint" />
          </mxGeometry>
        </mxCell>
        <mxCell id="OIBPaiVVMI2ZqsM4aZRZ-29" value="" style="endArrow=classic;html=1;rounded=0;entryX=1;entryY=0.5;entryDx=0;entryDy=0;exitX=0.016;exitY=0.359;exitDx=0;exitDy=0;exitPerimeter=0;" parent="1" source="OIBPaiVVMI2ZqsM4aZRZ-2" target="OIBPaiVVMI2ZqsM4aZRZ-9" edge="1">
          <mxGeometry width="50" height="50" relative="1" as="geometry">
            <mxPoint x="420" y="250" as="sourcePoint" />
            <mxPoint x="470" y="200" as="targetPoint" />
          </mxGeometry>
        </mxCell>
        <mxCell id="OIBPaiVVMI2ZqsM4aZRZ-30" value="" style="endArrow=classic;html=1;rounded=0;exitX=1;exitY=1;exitDx=0;exitDy=0;" parent="1" source="OIBPaiVVMI2ZqsM4aZRZ-3" target="OIBPaiVVMI2ZqsM4aZRZ-4" edge="1">
          <mxGeometry width="50" height="50" relative="1" as="geometry">
            <mxPoint x="420" y="250" as="sourcePoint" />
            <mxPoint x="470" y="200" as="targetPoint" />
          </mxGeometry>
        </mxCell>
        <mxCell id="OIBPaiVVMI2ZqsM4aZRZ-31" value="" style="endArrow=classic;html=1;rounded=0;entryX=0.979;entryY=0.682;entryDx=0;entryDy=0;exitX=0.013;exitY=0.375;exitDx=0;exitDy=0;exitPerimeter=0;entryPerimeter=0;" parent="1" source="OIBPaiVVMI2ZqsM4aZRZ-3" target="OIBPaiVVMI2ZqsM4aZRZ-7" edge="1">
          <mxGeometry width="50" height="50" relative="1" as="geometry">
            <mxPoint x="420" y="250" as="sourcePoint" />
            <mxPoint x="470" y="200" as="targetPoint" />
          </mxGeometry>
        </mxCell>
        <mxCell id="OIBPaiVVMI2ZqsM4aZRZ-32" value="" style="curved=1;endArrow=classic;html=1;rounded=0;entryX=0.943;entryY=0.299;entryDx=0;entryDy=0;entryPerimeter=0;exitX=0;exitY=0.5;exitDx=0;exitDy=0;" parent="1" source="OIBPaiVVMI2ZqsM4aZRZ-3" target="OIBPaiVVMI2ZqsM4aZRZ-9" edge="1">
          <mxGeometry width="50" height="50" relative="1" as="geometry">
            <mxPoint x="420" y="250" as="sourcePoint" />
            <mxPoint x="470" y="200" as="targetPoint" />
            <Array as="points">
              <mxPoint x="390" y="130" />
            </Array>
          </mxGeometry>
        </mxCell>
        <mxCell id="OIBPaiVVMI2ZqsM4aZRZ-34" value="" style="curved=1;endArrow=classic;html=1;rounded=0;exitX=0;exitY=0;exitDx=0;exitDy=0;entryX=0.714;entryY=0.946;entryDx=0;entryDy=0;entryPerimeter=0;" parent="1" source="OIBPaiVVMI2ZqsM4aZRZ-4" target="OIBPaiVVMI2ZqsM4aZRZ-6" edge="1">
          <mxGeometry width="50" height="50" relative="1" as="geometry">
            <mxPoint x="420" y="250" as="sourcePoint" />
            <mxPoint x="470" y="200" as="targetPoint" />
            <Array as="points">
              <mxPoint x="470" y="250" />
              <mxPoint x="430" y="200" />
            </Array>
          </mxGeometry>
        </mxCell>
        <mxCell id="OIBPaiVVMI2ZqsM4aZRZ-35" value="" style="curved=1;endArrow=classic;html=1;rounded=0;entryX=0.931;entryY=0.677;entryDx=0;entryDy=0;entryPerimeter=0;exitX=0;exitY=0.4;exitDx=0;exitDy=0;exitPerimeter=0;" parent="1" source="OIBPaiVVMI2ZqsM4aZRZ-4" target="OIBPaiVVMI2ZqsM4aZRZ-9" edge="1">
          <mxGeometry width="50" height="50" relative="1" as="geometry">
            <mxPoint x="420" y="250" as="sourcePoint" />
            <mxPoint x="470" y="200" as="targetPoint" />
            <Array as="points">
              <mxPoint x="380" y="270" />
            </Array>
          </mxGeometry>
        </mxCell>
        <mxCell id="OIBPaiVVMI2ZqsM4aZRZ-36" value="" style="curved=1;endArrow=classic;html=1;rounded=0;exitX=0.986;exitY=0.282;exitDx=0;exitDy=0;exitPerimeter=0;entryX=0.637;entryY=0.973;entryDx=0;entryDy=0;entryPerimeter=0;" parent="1" source="OIBPaiVVMI2ZqsM4aZRZ-5" target="OIBPaiVVMI2ZqsM4aZRZ-3" edge="1">
          <mxGeometry width="50" height="50" relative="1" as="geometry">
            <mxPoint x="420" y="250" as="sourcePoint" />
            <mxPoint x="470" y="200" as="targetPoint" />
            <Array as="points">
              <mxPoint x="470" y="250" />
            </Array>
          </mxGeometry>
        </mxCell>
        <mxCell id="OIBPaiVVMI2ZqsM4aZRZ-37" value="" style="curved=1;endArrow=classic;html=1;rounded=0;exitX=1;exitY=1;exitDx=0;exitDy=0;entryX=0;entryY=1;entryDx=0;entryDy=0;" parent="1" source="OIBPaiVVMI2ZqsM4aZRZ-5" target="OIBPaiVVMI2ZqsM4aZRZ-4" edge="1">
          <mxGeometry width="50" height="50" relative="1" as="geometry">
            <mxPoint x="420" y="250" as="sourcePoint" />
            <mxPoint x="470" y="200" as="targetPoint" />
            <Array as="points">
              <mxPoint x="380" y="380" />
              <mxPoint x="470" y="380" />
            </Array>
          </mxGeometry>
        </mxCell>
        <mxCell id="OIBPaiVVMI2ZqsM4aZRZ-38" value="" style="curved=1;endArrow=classic;html=1;rounded=0;exitX=0.5;exitY=0;exitDx=0;exitDy=0;entryX=0.013;entryY=0.689;entryDx=0;entryDy=0;entryPerimeter=0;" parent="1" source="OIBPaiVVMI2ZqsM4aZRZ-5" target="OIBPaiVVMI2ZqsM4aZRZ-6" edge="1">
          <mxGeometry width="50" height="50" relative="1" as="geometry">
            <mxPoint x="420" y="250" as="sourcePoint" />
            <mxPoint x="470" y="200" as="targetPoint" />
            <Array as="points">
              <mxPoint x="310" y="180" />
            </Array>
          </mxGeometry>
        </mxCell>
        <mxCell id="OIBPaiVVMI2ZqsM4aZRZ-39" value="" style="endArrow=classic;html=1;rounded=0;exitX=1;exitY=0;exitDx=0;exitDy=0;entryX=0;entryY=0;entryDx=0;entryDy=0;" parent="1" source="OIBPaiVVMI2ZqsM4aZRZ-7" target="OIBPaiVVMI2ZqsM4aZRZ-6" edge="1">
          <mxGeometry width="50" height="50" relative="1" as="geometry">
            <mxPoint x="420" y="250" as="sourcePoint" />
            <mxPoint x="470" y="200" as="targetPoint" />
          </mxGeometry>
        </mxCell>
        <mxCell id="OIBPaiVVMI2ZqsM4aZRZ-40" value="" style="endArrow=classic;html=1;rounded=0;exitX=0.5;exitY=1;exitDx=0;exitDy=0;entryX=0;entryY=0;entryDx=0;entryDy=0;" parent="1" source="OIBPaiVVMI2ZqsM4aZRZ-7" target="OIBPaiVVMI2ZqsM4aZRZ-2" edge="1">
          <mxGeometry width="50" height="50" relative="1" as="geometry">
            <mxPoint x="420" y="250" as="sourcePoint" />
            <mxPoint x="470" y="200" as="targetPoint" />
          </mxGeometry>
        </mxCell>
        <mxCell id="OIBPaiVVMI2ZqsM4aZRZ-41" value="" style="endArrow=classic;html=1;rounded=0;exitX=1;exitY=1;exitDx=0;exitDy=0;entryX=0.246;entryY=0.069;entryDx=0;entryDy=0;entryPerimeter=0;" parent="1" source="OIBPaiVVMI2ZqsM4aZRZ-7" target="OIBPaiVVMI2ZqsM4aZRZ-4" edge="1">
          <mxGeometry width="50" height="50" relative="1" as="geometry">
            <mxPoint x="420" y="250" as="sourcePoint" />
            <mxPoint x="470" y="200" as="targetPoint" />
          </mxGeometry>
        </mxCell>
        <mxCell id="OIBPaiVVMI2ZqsM4aZRZ-42" value="" style="curved=1;endArrow=classic;html=1;rounded=0;exitX=0;exitY=0.5;exitDx=0;exitDy=0;entryX=0;entryY=0;entryDx=0;entryDy=0;" parent="1" source="OIBPaiVVMI2ZqsM4aZRZ-7" target="OIBPaiVVMI2ZqsM4aZRZ-5" edge="1">
          <mxGeometry width="50" height="50" relative="1" as="geometry">
            <mxPoint x="420" y="250" as="sourcePoint" />
            <mxPoint x="470" y="200" as="targetPoint" />
            <Array as="points">
              <mxPoint x="200" y="190" />
            </Array>
          </mxGeometry>
        </mxCell>
        <mxCell id="OIBPaiVVMI2ZqsM4aZRZ-43" value="" style="curved=1;endArrow=classic;html=1;rounded=0;entryX=0.06;entryY=0.302;entryDx=0;entryDy=0;entryPerimeter=0;exitX=0.5;exitY=1;exitDx=0;exitDy=0;" parent="1" source="OIBPaiVVMI2ZqsM4aZRZ-7" target="OIBPaiVVMI2ZqsM4aZRZ-1" edge="1">
          <mxGeometry width="50" height="50" relative="1" as="geometry">
            <mxPoint x="305" y="112" as="sourcePoint" />
            <mxPoint x="470" y="200" as="targetPoint" />
            <Array as="points">
              <mxPoint x="320" y="250" />
              <mxPoint x="340" y="300" />
            </Array>
          </mxGeometry>
        </mxCell>
        <mxCell id="OIBPaiVVMI2ZqsM4aZRZ-44" value="" style="endArrow=classic;html=1;rounded=0;exitX=0.995;exitY=0.375;exitDx=0;exitDy=0;exitPerimeter=0;entryX=0.5;entryY=0;entryDx=0;entryDy=0;" parent="1" source="OIBPaiVVMI2ZqsM4aZRZ-7" target="OIBPaiVVMI2ZqsM4aZRZ-8" edge="1">
          <mxGeometry width="50" height="50" relative="1" as="geometry">
            <mxPoint x="420" y="250" as="sourcePoint" />
            <mxPoint x="470" y="200" as="targetPoint" />
          </mxGeometry>
        </mxCell>
        <mxCell id="OIBPaiVVMI2ZqsM4aZRZ-45" value="" style="endArrow=classic;html=1;rounded=0;exitX=0;exitY=1;exitDx=0;exitDy=0;entryX=0.5;entryY=0;entryDx=0;entryDy=0;" parent="1" source="OIBPaiVVMI2ZqsM4aZRZ-7" target="OIBPaiVVMI2ZqsM4aZRZ-9" edge="1">
          <mxGeometry width="50" height="50" relative="1" as="geometry">
            <mxPoint x="420" y="250" as="sourcePoint" />
            <mxPoint x="470" y="200" as="targetPoint" />
          </mxGeometry>
        </mxCell>
        <mxCell id="OIBPaiVVMI2ZqsM4aZRZ-46" value="" style="endArrow=classic;html=1;rounded=0;exitX=0;exitY=0.5;exitDx=0;exitDy=0;entryX=1;entryY=0.5;entryDx=0;entryDy=0;" parent="1" source="OIBPaiVVMI2ZqsM4aZRZ-8" target="OIBPaiVVMI2ZqsM4aZRZ-3" edge="1">
          <mxGeometry width="50" height="50" relative="1" as="geometry">
            <mxPoint x="420" y="250" as="sourcePoint" />
            <mxPoint x="470" y="200" as="targetPoint" />
          </mxGeometry>
        </mxCell>
        <mxCell id="OIBPaiVVMI2ZqsM4aZRZ-47" value="" style="curved=1;endArrow=classic;html=1;rounded=0;entryX=1;entryY=0;entryDx=0;entryDy=0;exitX=1;exitY=1;exitDx=0;exitDy=0;" parent="1" source="OIBPaiVVMI2ZqsM4aZRZ-8" target="OIBPaiVVMI2ZqsM4aZRZ-4" edge="1">
          <mxGeometry width="50" height="50" relative="1" as="geometry">
            <mxPoint x="420" y="250" as="sourcePoint" />
            <mxPoint x="470" y="200" as="targetPoint" />
            <Array as="points">
              <mxPoint x="620" y="220" />
            </Array>
          </mxGeometry>
        </mxCell>
        <mxCell id="OIBPaiVVMI2ZqsM4aZRZ-48" value="" style="curved=1;endArrow=classic;html=1;rounded=0;exitX=0.5;exitY=1;exitDx=0;exitDy=0;entryX=0.978;entryY=0.76;entryDx=0;entryDy=0;entryPerimeter=0;" parent="1" source="OIBPaiVVMI2ZqsM4aZRZ-8" target="OIBPaiVVMI2ZqsM4aZRZ-5" edge="1">
          <mxGeometry width="50" height="50" relative="1" as="geometry">
            <mxPoint x="420" y="250" as="sourcePoint" />
            <mxPoint x="470" y="200" as="targetPoint" />
            <Array as="points">
              <mxPoint x="470" y="250" />
              <mxPoint x="430" y="280" />
            </Array>
          </mxGeometry>
        </mxCell>
        <mxCell id="OIBPaiVVMI2ZqsM4aZRZ-49" value="" style="curved=1;endArrow=classic;html=1;rounded=0;entryX=0.694;entryY=0.067;entryDx=0;entryDy=0;entryPerimeter=0;exitX=-0.002;exitY=0.307;exitDx=0;exitDy=0;exitPerimeter=0;" parent="1" source="OIBPaiVVMI2ZqsM4aZRZ-8" target="OIBPaiVVMI2ZqsM4aZRZ-9" edge="1">
          <mxGeometry width="50" height="50" relative="1" as="geometry">
            <mxPoint x="420" y="250" as="sourcePoint" />
            <mxPoint x="470" y="200" as="targetPoint" />
            <Array as="points">
              <mxPoint x="500" y="90" />
              <mxPoint x="390" y="120" />
            </Array>
          </mxGeometry>
        </mxCell>
        <mxCell id="OIBPaiVVMI2ZqsM4aZRZ-51" value="" style="endArrow=classic;html=1;rounded=0;exitX=0.5;exitY=1;exitDx=0;exitDy=0;entryX=0.355;entryY=0.042;entryDx=0;entryDy=0;entryPerimeter=0;" parent="1" source="OIBPaiVVMI2ZqsM4aZRZ-9" target="OIBPaiVVMI2ZqsM4aZRZ-5" edge="1">
          <mxGeometry width="50" height="50" relative="1" as="geometry">
            <mxPoint x="420" y="250" as="sourcePoint" />
            <mxPoint x="470" y="200" as="targetPoint" />
          </mxGeometry>
        </mxCell>
        <mxCell id="OIBPaiVVMI2ZqsM4aZRZ-52" value="&lt;font style=&quot;font-size: 17px;&quot;&gt;1&lt;/font&gt;" style="ellipse;whiteSpace=wrap;html=1;aspect=fixed;" parent="1" vertex="1">
          <mxGeometry x="330" y="481" width="50" height="50" as="geometry" />
        </mxCell>
        <mxCell id="OIBPaiVVMI2ZqsM4aZRZ-53" value="&lt;font style=&quot;font-size: 17px;&quot;&gt;5&lt;/font&gt;" style="ellipse;whiteSpace=wrap;html=1;aspect=fixed;" parent="1" vertex="1">
          <mxGeometry x="367" y="770" width="50" height="50" as="geometry" />
        </mxCell>
        <mxCell id="OIBPaiVVMI2ZqsM4aZRZ-54" value="&lt;font style=&quot;font-size: 17px;&quot;&gt;8&lt;/font&gt;" style="ellipse;whiteSpace=wrap;html=1;aspect=fixed;" parent="1" vertex="1">
          <mxGeometry x="361" y="585" width="50" height="50" as="geometry" />
        </mxCell>
        <mxCell id="OIBPaiVVMI2ZqsM4aZRZ-56" value="" style="endArrow=classic;html=1;rounded=0;exitX=0.5;exitY=1;exitDx=0;exitDy=0;entryX=0.25;entryY=0.027;entryDx=0;entryDy=0;entryPerimeter=0;" parent="1" source="OIBPaiVVMI2ZqsM4aZRZ-52" target="OIBPaiVVMI2ZqsM4aZRZ-54" edge="1">
          <mxGeometry width="50" height="50" relative="1" as="geometry">
            <mxPoint x="500" y="520" as="sourcePoint" />
            <mxPoint x="550" y="470" as="targetPoint" />
          </mxGeometry>
        </mxCell>
        <mxCell id="OIBPaiVVMI2ZqsM4aZRZ-57" value="&lt;font style=&quot;font-size: 17px;&quot;&gt;2&lt;/font&gt;" style="ellipse;whiteSpace=wrap;html=1;aspect=fixed;" parent="1" vertex="1">
          <mxGeometry x="404" y="477" width="50" height="50" as="geometry" />
        </mxCell>
        <mxCell id="OIBPaiVVMI2ZqsM4aZRZ-60" value="" style="endArrow=classic;html=1;rounded=0;exitX=0;exitY=0.5;exitDx=0;exitDy=0;entryX=0.5;entryY=0;entryDx=0;entryDy=0;" parent="1" source="OIBPaiVVMI2ZqsM4aZRZ-57" target="OIBPaiVVMI2ZqsM4aZRZ-54" edge="1">
          <mxGeometry width="50" height="50" relative="1" as="geometry">
            <mxPoint x="500" y="615" as="sourcePoint" />
            <mxPoint x="550" y="565" as="targetPoint" />
          </mxGeometry>
        </mxCell>
        <mxCell id="OIBPaiVVMI2ZqsM4aZRZ-61" value="&lt;font style=&quot;font-size: 17px;&quot;&gt;3&lt;/font&gt;" style="ellipse;whiteSpace=wrap;html=1;aspect=fixed;" parent="1" vertex="1">
          <mxGeometry x="439" y="585" width="50" height="50" as="geometry" />
        </mxCell>
        <mxCell id="OIBPaiVVMI2ZqsM4aZRZ-62" value="" style="endArrow=classic;html=1;rounded=0;exitX=1;exitY=1;exitDx=0;exitDy=0;" parent="1" source="OIBPaiVVMI2ZqsM4aZRZ-57" target="OIBPaiVVMI2ZqsM4aZRZ-61" edge="1">
          <mxGeometry width="50" height="50" relative="1" as="geometry">
            <mxPoint x="500" y="615" as="sourcePoint" />
            <mxPoint x="550" y="565" as="targetPoint" />
          </mxGeometry>
        </mxCell>
        <mxCell id="OIBPaiVVMI2ZqsM4aZRZ-63" value="&lt;font style=&quot;font-size: 17px;&quot;&gt;9&lt;/font&gt;" style="ellipse;whiteSpace=wrap;html=1;aspect=fixed;" parent="1" vertex="1">
          <mxGeometry x="367" y="681" width="50" height="50" as="geometry" />
        </mxCell>
        <mxCell id="OIBPaiVVMI2ZqsM4aZRZ-64" value="" style="endArrow=classic;html=1;rounded=0;exitX=0.5;exitY=1;exitDx=0;exitDy=0;entryX=1;entryY=0;entryDx=0;entryDy=0;" parent="1" source="OIBPaiVVMI2ZqsM4aZRZ-61" target="OIBPaiVVMI2ZqsM4aZRZ-63" edge="1">
          <mxGeometry width="50" height="50" relative="1" as="geometry">
            <mxPoint x="500" y="615" as="sourcePoint" />
            <mxPoint x="550" y="565" as="targetPoint" />
          </mxGeometry>
        </mxCell>
        <mxCell id="OIBPaiVVMI2ZqsM4aZRZ-65" value="&lt;font style=&quot;font-size: 17px;&quot;&gt;7&lt;/font&gt;" style="ellipse;whiteSpace=wrap;html=1;aspect=fixed;" parent="1" vertex="1">
          <mxGeometry x="274" y="486" width="50" height="50" as="geometry" />
        </mxCell>
        <mxCell id="OIBPaiVVMI2ZqsM4aZRZ-66" value="" style="endArrow=classic;html=1;rounded=0;exitX=0.5;exitY=1;exitDx=0;exitDy=0;entryX=0;entryY=0;entryDx=0;entryDy=0;" parent="1" source="OIBPaiVVMI2ZqsM4aZRZ-65" target="OIBPaiVVMI2ZqsM4aZRZ-63" edge="1">
          <mxGeometry width="50" height="50" relative="1" as="geometry">
            <mxPoint x="500" y="615" as="sourcePoint" />
            <mxPoint x="355" y="711" as="targetPoint" />
          </mxGeometry>
        </mxCell>
        <mxCell id="OIBPaiVVMI2ZqsM4aZRZ-68" value="" style="endArrow=classic;html=1;rounded=0;exitX=0.5;exitY=1;exitDx=0;exitDy=0;entryX=0.5;entryY=0;entryDx=0;entryDy=0;" parent="1" source="OIBPaiVVMI2ZqsM4aZRZ-54" target="OIBPaiVVMI2ZqsM4aZRZ-63" edge="1">
          <mxGeometry width="50" height="50" relative="1" as="geometry">
            <mxPoint x="500" y="615" as="sourcePoint" />
            <mxPoint x="550" y="565" as="targetPoint" />
          </mxGeometry>
        </mxCell>
        <mxCell id="OIBPaiVVMI2ZqsM4aZRZ-69" value="" style="endArrow=classic;html=1;rounded=0;exitX=0.5;exitY=1;exitDx=0;exitDy=0;entryX=0.5;entryY=0;entryDx=0;entryDy=0;" parent="1" source="OIBPaiVVMI2ZqsM4aZRZ-63" target="OIBPaiVVMI2ZqsM4aZRZ-53" edge="1">
          <mxGeometry width="50" height="50" relative="1" as="geometry">
            <mxPoint x="500" y="615" as="sourcePoint" />
            <mxPoint x="402" y="788" as="targetPoint" />
          </mxGeometry>
        </mxCell>
        <mxCell id="OIBPaiVVMI2ZqsM4aZRZ-87" value="&lt;font style=&quot;font-size: 17px;&quot;&gt;1&lt;/font&gt;" style="ellipse;whiteSpace=wrap;html=1;aspect=fixed;" parent="1" vertex="1">
          <mxGeometry x="530" y="696" width="50" height="50" as="geometry" />
        </mxCell>
        <mxCell id="OIBPaiVVMI2ZqsM4aZRZ-91" value="&lt;font style=&quot;font-size: 17px;&quot;&gt;5&lt;/font&gt;" style="ellipse;whiteSpace=wrap;html=1;aspect=fixed;" parent="1" vertex="1">
          <mxGeometry x="584" y="938" width="50" height="50" as="geometry" />
        </mxCell>
        <mxCell id="OIBPaiVVMI2ZqsM4aZRZ-92" value="&lt;font style=&quot;font-size: 17px;&quot;&gt;8&lt;/font&gt;" style="ellipse;whiteSpace=wrap;html=1;aspect=fixed;" parent="1" vertex="1">
          <mxGeometry x="584" y="770" width="50" height="50" as="geometry" />
        </mxCell>
        <mxCell id="OIBPaiVVMI2ZqsM4aZRZ-94" value="" style="endArrow=classic;html=1;rounded=0;exitX=1;exitY=1;exitDx=0;exitDy=0;entryX=0;entryY=0;entryDx=0;entryDy=0;" parent="1" source="OIBPaiVVMI2ZqsM4aZRZ-87" target="OIBPaiVVMI2ZqsM4aZRZ-92" edge="1">
          <mxGeometry width="50" height="50" relative="1" as="geometry">
            <mxPoint x="500" y="615" as="sourcePoint" />
            <mxPoint x="550" y="565" as="targetPoint" />
          </mxGeometry>
        </mxCell>
        <mxCell id="OIBPaiVVMI2ZqsM4aZRZ-95" value="&lt;font style=&quot;font-size: 17px;&quot;&gt;2&lt;/font&gt;" style="ellipse;whiteSpace=wrap;html=1;aspect=fixed;" parent="1" vertex="1">
          <mxGeometry x="637" y="696" width="50" height="50" as="geometry" />
        </mxCell>
        <mxCell id="OIBPaiVVMI2ZqsM4aZRZ-98" value="" style="endArrow=classic;html=1;rounded=0;exitX=0;exitY=1;exitDx=0;exitDy=0;entryX=1;entryY=0;entryDx=0;entryDy=0;" parent="1" source="OIBPaiVVMI2ZqsM4aZRZ-95" target="OIBPaiVVMI2ZqsM4aZRZ-92" edge="1">
          <mxGeometry width="50" height="50" relative="1" as="geometry">
            <mxPoint x="500" y="711" as="sourcePoint" />
            <mxPoint x="550" y="661" as="targetPoint" />
          </mxGeometry>
        </mxCell>
        <mxCell id="OIBPaiVVMI2ZqsM4aZRZ-104" value="&lt;font style=&quot;font-size: 17px;&quot;&gt;9&lt;/font&gt;" style="ellipse;whiteSpace=wrap;html=1;aspect=fixed;" parent="1" vertex="1">
          <mxGeometry x="584" y="850" width="50" height="50" as="geometry" />
        </mxCell>
        <mxCell id="OIBPaiVVMI2ZqsM4aZRZ-107" value="" style="endArrow=classic;html=1;rounded=0;exitX=0.5;exitY=1;exitDx=0;exitDy=0;entryX=0.5;entryY=0;entryDx=0;entryDy=0;" parent="1" source="OIBPaiVVMI2ZqsM4aZRZ-92" target="OIBPaiVVMI2ZqsM4aZRZ-104" edge="1">
          <mxGeometry width="50" height="50" relative="1" as="geometry">
            <mxPoint x="535" y="830" as="sourcePoint" />
            <mxPoint x="585" y="780" as="targetPoint" />
          </mxGeometry>
        </mxCell>
        <mxCell id="OIBPaiVVMI2ZqsM4aZRZ-108" value="" style="endArrow=classic;html=1;rounded=0;exitX=0.5;exitY=1;exitDx=0;exitDy=0;" parent="1" source="OIBPaiVVMI2ZqsM4aZRZ-104" target="OIBPaiVVMI2ZqsM4aZRZ-91" edge="1">
          <mxGeometry width="50" height="50" relative="1" as="geometry">
            <mxPoint x="535" y="830" as="sourcePoint" />
            <mxPoint x="585" y="780" as="targetPoint" />
          </mxGeometry>
        </mxCell>
        <mxCell id="yWeS74ytLgWgwws0xojj-1" value="&lt;font style=&quot;font-size: 17px;&quot;&gt;1&lt;/font&gt;" style="ellipse;whiteSpace=wrap;html=1;aspect=fixed;" vertex="1" parent="1">
          <mxGeometry x="155" y="789" width="50" height="50" as="geometry" />
        </mxCell>
        <mxCell id="yWeS74ytLgWgwws0xojj-2" value="&lt;font style=&quot;font-size: 17px;&quot;&gt;5&lt;/font&gt;" style="ellipse;whiteSpace=wrap;html=1;aspect=fixed;" vertex="1" parent="1">
          <mxGeometry x="149" y="1010" width="50" height="50" as="geometry" />
        </mxCell>
        <mxCell id="yWeS74ytLgWgwws0xojj-3" value="&lt;font style=&quot;font-size: 17px;&quot;&gt;8&lt;/font&gt;" style="ellipse;whiteSpace=wrap;html=1;aspect=fixed;" vertex="1" parent="1">
          <mxGeometry x="158" y="866" width="50" height="50" as="geometry" />
        </mxCell>
        <mxCell id="yWeS74ytLgWgwws0xojj-4" value="" style="endArrow=classic;html=1;rounded=0;exitX=0.5;exitY=1;exitDx=0;exitDy=0;entryX=0.25;entryY=0.027;entryDx=0;entryDy=0;entryPerimeter=0;" edge="1" parent="1" source="yWeS74ytLgWgwws0xojj-1" target="yWeS74ytLgWgwws0xojj-3">
          <mxGeometry width="50" height="50" relative="1" as="geometry">
            <mxPoint x="285" y="786" as="sourcePoint" />
            <mxPoint x="335" y="736" as="targetPoint" />
          </mxGeometry>
        </mxCell>
        <mxCell id="yWeS74ytLgWgwws0xojj-5" value="&lt;font style=&quot;font-size: 17px;&quot;&gt;2&lt;/font&gt;" style="ellipse;whiteSpace=wrap;html=1;aspect=fixed;" vertex="1" parent="1">
          <mxGeometry x="230" y="789" width="50" height="50" as="geometry" />
        </mxCell>
        <mxCell id="yWeS74ytLgWgwws0xojj-6" value="" style="endArrow=classic;html=1;rounded=0;exitX=0;exitY=0.5;exitDx=0;exitDy=0;entryX=0.5;entryY=0;entryDx=0;entryDy=0;" edge="1" parent="1" source="yWeS74ytLgWgwws0xojj-5" target="yWeS74ytLgWgwws0xojj-3">
          <mxGeometry width="50" height="50" relative="1" as="geometry">
            <mxPoint x="285" y="881" as="sourcePoint" />
            <mxPoint x="335" y="831" as="targetPoint" />
          </mxGeometry>
        </mxCell>
        <mxCell id="yWeS74ytLgWgwws0xojj-7" value="&lt;font style=&quot;font-size: 17px;&quot;&gt;3&lt;/font&gt;" style="ellipse;whiteSpace=wrap;html=1;aspect=fixed;" vertex="1" parent="1">
          <mxGeometry x="230" y="866" width="50" height="50" as="geometry" />
        </mxCell>
        <mxCell id="yWeS74ytLgWgwws0xojj-8" value="" style="endArrow=classic;html=1;rounded=0;exitX=1;exitY=1;exitDx=0;exitDy=0;" edge="1" parent="1" source="yWeS74ytLgWgwws0xojj-5" target="yWeS74ytLgWgwws0xojj-7">
          <mxGeometry width="50" height="50" relative="1" as="geometry">
            <mxPoint x="285" y="881" as="sourcePoint" />
            <mxPoint x="335" y="831" as="targetPoint" />
          </mxGeometry>
        </mxCell>
        <mxCell id="yWeS74ytLgWgwws0xojj-9" value="&lt;font style=&quot;font-size: 17px;&quot;&gt;9&lt;/font&gt;" style="ellipse;whiteSpace=wrap;html=1;aspect=fixed;" vertex="1" parent="1">
          <mxGeometry x="149" y="938" width="50" height="50" as="geometry" />
        </mxCell>
        <mxCell id="yWeS74ytLgWgwws0xojj-10" value="" style="endArrow=classic;html=1;rounded=0;exitX=0.5;exitY=1;exitDx=0;exitDy=0;entryX=1;entryY=0;entryDx=0;entryDy=0;" edge="1" parent="1" source="yWeS74ytLgWgwws0xojj-7" target="yWeS74ytLgWgwws0xojj-9">
          <mxGeometry width="50" height="50" relative="1" as="geometry">
            <mxPoint x="285" y="881" as="sourcePoint" />
            <mxPoint x="335" y="831" as="targetPoint" />
          </mxGeometry>
        </mxCell>
        <mxCell id="yWeS74ytLgWgwws0xojj-11" value="&lt;font style=&quot;font-size: 17px;&quot;&gt;7&lt;/font&gt;" style="ellipse;whiteSpace=wrap;html=1;aspect=fixed;" vertex="1" parent="1">
          <mxGeometry x="101" y="655" width="50" height="50" as="geometry" />
        </mxCell>
        <mxCell id="yWeS74ytLgWgwws0xojj-12" value="" style="endArrow=classic;html=1;rounded=0;exitX=0.5;exitY=1;exitDx=0;exitDy=0;entryX=0;entryY=0;entryDx=0;entryDy=0;" edge="1" parent="1" source="yWeS74ytLgWgwws0xojj-11" target="yWeS74ytLgWgwws0xojj-9">
          <mxGeometry width="50" height="50" relative="1" as="geometry">
            <mxPoint x="285" y="881" as="sourcePoint" />
            <mxPoint x="140" y="977" as="targetPoint" />
          </mxGeometry>
        </mxCell>
        <mxCell id="yWeS74ytLgWgwws0xojj-13" value="" style="endArrow=classic;html=1;rounded=0;exitX=0.5;exitY=1;exitDx=0;exitDy=0;entryX=0.5;entryY=0;entryDx=0;entryDy=0;" edge="1" parent="1" source="yWeS74ytLgWgwws0xojj-3" target="yWeS74ytLgWgwws0xojj-9">
          <mxGeometry width="50" height="50" relative="1" as="geometry">
            <mxPoint x="285" y="881" as="sourcePoint" />
            <mxPoint x="335" y="831" as="targetPoint" />
          </mxGeometry>
        </mxCell>
        <mxCell id="yWeS74ytLgWgwws0xojj-14" value="" style="endArrow=classic;html=1;rounded=0;exitX=0.5;exitY=1;exitDx=0;exitDy=0;entryX=0.5;entryY=0;entryDx=0;entryDy=0;" edge="1" parent="1" source="yWeS74ytLgWgwws0xojj-9" target="yWeS74ytLgWgwws0xojj-2">
          <mxGeometry width="50" height="50" relative="1" as="geometry">
            <mxPoint x="285" y="881" as="sourcePoint" />
            <mxPoint x="187" y="1054" as="targetPoint" />
          </mxGeometry>
        </mxCell>
        <mxCell id="yWeS74ytLgWgwws0xojj-15" value="&lt;font style=&quot;font-size: 17px;&quot;&gt;4&lt;/font&gt;" style="ellipse;whiteSpace=wrap;html=1;aspect=fixed;" vertex="1" parent="1">
          <mxGeometry x="194" y="655" width="50" height="50" as="geometry" />
        </mxCell>
        <mxCell id="yWeS74ytLgWgwws0xojj-20" value="&lt;font style=&quot;font-size: 17px;&quot;&gt;6&lt;/font&gt;" style="ellipse;whiteSpace=wrap;html=1;aspect=fixed;" vertex="1" parent="1">
          <mxGeometry x="194" y="726" width="50" height="50" as="geometry" />
        </mxCell>
        <mxCell id="yWeS74ytLgWgwws0xojj-22" value="" style="endArrow=classic;html=1;rounded=0;exitX=0;exitY=1;exitDx=0;exitDy=0;entryX=0.5;entryY=0;entryDx=0;entryDy=0;" edge="1" parent="1" source="yWeS74ytLgWgwws0xojj-20" target="yWeS74ytLgWgwws0xojj-1">
          <mxGeometry width="50" height="50" relative="1" as="geometry">
            <mxPoint x="387" y="874" as="sourcePoint" />
            <mxPoint x="437" y="824" as="targetPoint" />
          </mxGeometry>
        </mxCell>
        <mxCell id="yWeS74ytLgWgwws0xojj-23" value="" style="endArrow=classic;html=1;rounded=0;exitX=1;exitY=1;exitDx=0;exitDy=0;entryX=0.5;entryY=0;entryDx=0;entryDy=0;" edge="1" parent="1" source="yWeS74ytLgWgwws0xojj-20" target="yWeS74ytLgWgwws0xojj-5">
          <mxGeometry width="50" height="50" relative="1" as="geometry">
            <mxPoint x="387" y="874" as="sourcePoint" />
            <mxPoint x="437" y="824" as="targetPoint" />
          </mxGeometry>
        </mxCell>
        <mxCell id="yWeS74ytLgWgwws0xojj-24" value="" style="endArrow=classic;html=1;rounded=0;exitX=0.5;exitY=1;exitDx=0;exitDy=0;entryX=0.5;entryY=0;entryDx=0;entryDy=0;" edge="1" parent="1" source="yWeS74ytLgWgwws0xojj-15" target="yWeS74ytLgWgwws0xojj-20">
          <mxGeometry width="50" height="50" relative="1" as="geometry">
            <mxPoint x="387" y="774" as="sourcePoint" />
            <mxPoint x="437" y="724" as="targetPoint" />
          </mxGeometry>
        </mxCell>
      </root>
    </mxGraphModel>
  </diagram>
</mxfile>
